<?xml version="1.0" standalone="no"?>
<!DOCTYPE svg PUBLIC "-//W3C//DTD SVG 20010904//EN"
 "http://www.w3.org/TR/2001/REC-SVG-20010904/DTD/svg10.dtd">
<svg version="1.0" xmlns="http://www.w3.org/2000/svg"
 width="512.000000pt" height="512.000000pt" viewBox="0 0 512.000000 512.000000"
 preserveAspectRatio="xMidYMid meet">

<g transform="translate(0.000000,512.000000) scale(0.100000,-0.100000)"
fill="#000000" stroke="none">
<path d="M1787 5110 c-26 -4 -78 -18 -115 -30 -218 -70 -402 -250 -452 -440
-19 -76 -21 -80 -35 -80 -29 0 -64 -24 -73 -50 -13 -36 9 -88 40 -94 147 -30
198 -6 198 94 0 62 38 161 85 225 138 184 383 271 618 219 145 -32 298 -131
358 -232 12 -20 32 -48 45 -62 22 -24 23 -31 26 -273 l3 -249 28 -24 c35 -30
59 -30 94 0 l28 24 3 249 c3 242 4 249 26 273 13 14 33 42 45 62 35 60 136
145 214 182 186 88 382 87 563 -4 173 -87 284 -247 284 -409 0 -70 -30 -173
-65 -225 -40 -59 -42 -81 -7 -116 17 -16 39 -30 50 -30 51 0 118 100 152 223
16 57 19 62 47 65 49 5 174 -26 240 -59 69 -35 159 -122 190 -184 54 -107 53
-209 -3 -325 -53 -112 -36 -142 92 -158 135 -18 228 -64 311 -155 52 -57 78
-107 94 -184 37 -181 -92 -373 -278 -413 -28 -6 -59 -20 -69 -31 -23 -25 -22
-73 2 -100 29 -33 126 -22 216 24 l68 35 36 -41 c19 -23 51 -74 69 -112 99
-204 58 -424 -108 -589 -83 -83 -149 -124 -262 -161 -135 -45 -150 -82 -72
-179 85 -103 127 -217 127 -337 -1 -85 -14 -139 -57 -232 -41 -87 -39 -119 8
-146 61 -34 114 22 166 174 25 71 28 94 28 205 0 111 -4 134 -28 205 -16 44
-42 102 -58 129 -17 26 -29 49 -27 50 145 66 188 94 279 185 78 79 102 111
136 181 54 110 78 225 70 336 -10 140 -76 297 -166 397 -34 38 -35 39 -17 65
44 68 77 153 88 228 37 261 -154 524 -434 595 -46 12 -49 15 -44 39 32 141 31
207 -5 314 -72 212 -289 369 -543 392 l-76 7 -11 41 c-18 72 -21 80 -50 138
-82 163 -253 295 -459 354 -98 28 -299 26 -404 -4 -131 -38 -230 -95 -322
-187 -44 -44 -88 -91 -97 -105 l-17 -25 -17 25 c-9 14 -53 61 -97 105 -91 91
-191 149 -316 185 -84 24 -265 34 -343 20z"/>
<path d="M3206 4619 c-52 -41 -23 -129 43 -129 71 0 101 80 47 127 -33 28 -56
29 -90 2z"/>
<path d="M805 4448 c-89 -51 -193 -182 -225 -284 -35 -114 -36 -174 -4 -314 5
-24 2 -27 -44 -39 -281 -72 -474 -338 -433 -599 11 -72 45 -159 88 -224 17
-27 17 -28 -14 -60 -93 -98 -161 -260 -170 -408 -17 -265 141 -525 397 -653
47 -23 86 -43 88 -43 2 -1 -10 -24 -27 -50 -65 -106 -111 -318 -82 -373 17
-31 58 -45 92 -31 31 13 49 48 49 97 0 93 50 216 127 309 78 97 63 134 -72
179 -115 38 -180 78 -265 164 -215 217 -214 504 3 738 82 89 85 109 27 179
-131 158 -130 347 3 492 110 119 293 182 430 147 33 -8 79 -29 104 -45 78 -53
143 -33 143 42 0 29 -7 42 -32 64 -41 34 -120 71 -188 87 -49 11 -55 15 -74
57 -15 33 -20 66 -21 125 0 110 36 185 135 278 61 57 70 70 70 101 0 25 -7 40
-26 55 -30 24 -50 26 -79 9z"/>
<path d="M1958 4270 c-18 -14 -29 -36 -37 -77 -23 -117 -112 -223 -242 -288
-85 -43 -100 -76 -58 -129 14 -18 30 -26 51 -26 96 0 300 166 357 291 38 83
55 173 39 202 -26 49 -69 60 -110 27z"/>
<path d="M3175 4239 c-45 -13 -100 -63 -124 -112 -26 -55 -27 -137 -2 -193 17
-38 93 -114 114 -114 16 0 -1 -98 -26 -153 -13 -29 -37 -65 -53 -81 -61 -61
-183 -95 -339 -96 -111 0 -103 -13 -107 186 -3 163 -4 175 -25 195 -29 29 -77
29 -106 0 l-22 -22 -3 -1651 c-2 -1366 -5 -1654 -16 -1660 -7 -4 -30 -37 -52
-74 -78 -133 -235 -246 -404 -291 -89 -24 -281 -24 -370 0 -247 66 -434 251
-470 468 -21 122 14 256 89 342 43 48 45 91 6 124 -20 18 -35 23 -54 18 -38
-8 -107 -88 -144 -166 -17 -38 -37 -69 -43 -69 -29 0 -127 36 -199 73 -60 32
-100 63 -163 126 -69 70 -87 84 -114 84 -38 0 -68 -32 -68 -73 0 -32 52 -103
119 -163 91 -82 243 -162 359 -188 l50 -12 7 -70 c29 -302 255 -550 581 -638
110 -30 326 -32 434 -5 105 27 200 68 279 121 76 50 196 171 226 228 11 20 22
37 25 37 3 0 14 -17 25 -37 32 -61 162 -190 239 -238 290 -180 670 -178 951 5
191 126 309 313 330 527 l7 71 64 16 c73 19 170 59 196 83 40 36 9 123 -43
123 -12 0 -63 -15 -113 -34 -50 -19 -116 -38 -146 -42 -103 -13 -123 -34 -114
-124 23 -258 -180 -508 -476 -587 -89 -24 -281 -24 -370 0 -170 45 -318 152
-406 293 -25 41 -50 74 -55 74 -5 0 -9 204 -9 480 l0 480 115 0 c129 0 199
-12 266 -46 79 -39 131 -119 144 -219 l6 -50 -47 -35 c-64 -47 -94 -106 -94
-182 0 -72 24 -122 81 -171 86 -74 212 -70 293 9 49 48 69 95 69 164 0 86 -52
167 -130 203 -16 7 -23 19 -23 40 0 87 -56 222 -123 294 -91 99 -190 133 -404
140 l-153 6 0 233 0 234 158 0 c414 -1 713 -46 842 -128 94 -60 158 -159 175
-274 6 -41 5 -47 -14 -53 -70 -22 -125 -110 -125 -200 0 -200 237 -300 378
-159 64 64 84 169 47 249 -18 41 -91 115 -114 115 -7 0 -18 33 -29 87 -57 295
-273 447 -703 493 -55 6 -216 13 -357 17 l-258 6 0 232 0 232 263 6 c400 10
591 40 754 118 167 80 266 209 301 392 9 48 21 87 27 87 22 0 98 75 116 114
44 98 6 224 -84 280 -84 51 -187 46 -260 -15 -91 -75 -110 -202 -44 -300 21
-31 71 -72 99 -81 9 -3 9 -19 -1 -64 -45 -204 -176 -303 -466 -349 -117 -19
-372 -35 -557 -35 l-148 0 0 229 0 229 63 -5 c85 -7 249 12 322 37 164 56 256
172 289 363 11 64 14 69 52 92 51 30 90 86 103 147 24 104 -34 212 -136 255
-36 15 -112 16 -158 2z m126 -157 c33 -27 30 -78 -5 -109 -33 -28 -56 -29 -90
-2 -19 15 -26 30 -26 55 0 65 69 97 121 56z m646 -484 c33 -30 31 -80 -3 -107
-50 -39 -108 -16 -120 46 -13 66 73 108 123 61z m-3 -2079 c53 -41 18 -129
-51 -129 -13 0 -35 12 -50 26 -20 20 -24 31 -19 57 12 62 70 85 120 46z m-643
-497 c33 -27 30 -78 -5 -109 -33 -28 -56 -29 -90 -2 -19 15 -26 30 -26 55 0
65 69 97 121 56z"/>
<path d="M1265 3127 c-95 -39 -142 -69 -214 -140 -93 -91 -152 -196 -185 -328
-31 -126 -14 -179 58 -179 41 0 76 37 76 80 0 38 28 126 61 192 59 117 190
224 316 257 73 20 102 71 66 119 -30 40 -80 40 -178 -1z"/>
<path d="M1955 2660 c-34 -13 -44 -33 -53 -111 -5 -41 -16 -89 -25 -105 -19
-37 -63 -82 -99 -100 -76 -39 -58 -144 25 -144 43 0 128 58 172 118 68 91 102
280 59 321 -24 24 -54 32 -79 21z"/>
<path d="M3582 2553 c-12 -10 -24 -30 -28 -45 -5 -22 0 -33 24 -58 36 -35 60
-38 96 -9 52 41 23 129 -43 129 -16 0 -38 -8 -49 -17z"/>
<path d="M4092 2553 c-12 -10 -24 -30 -28 -45 -5 -22 0 -33 24 -58 36 -35 60
-38 96 -9 52 41 23 129 -43 129 -16 0 -38 -8 -49 -17z"/>
<path d="M1620 1613 c-20 -26 -22 -36 -17 -123 13 -226 123 -418 300 -519 78
-45 120 -41 142 12 20 47 3 80 -58 113 -142 77 -236 248 -237 430 0 47 -5 68
-21 88 -29 37 -80 36 -109 -1z"/>
<path d="M3206 489 c-52 -41 -23 -129 43 -129 71 0 101 80 47 127 -33 28 -56
29 -90 2z"/>
</g>
</svg>
