<?xml version="1.0" standalone="no"?>
<!DOCTYPE svg PUBLIC "-//W3C//DTD SVG 20010904//EN"
 "http://www.w3.org/TR/2001/REC-SVG-20010904/DTD/svg10.dtd">
<svg version="1.0" xmlns="http://www.w3.org/2000/svg"
 width="512.000000pt" height="512.000000pt" viewBox="0 0 512.000000 512.000000"
 preserveAspectRatio="xMidYMid meet">

<g transform="translate(0.000000,512.000000) scale(0.100000,-0.100000)"
fill="#000000" stroke="none">
<path d="M185 4935 l-25 -24 0 -271 0 -271 25 -24 c22 -23 32 -25 120 -25 l95
0 0 -1680 0 -1680 -95 0 c-88 0 -98 -2 -120 -25 -25 -24 -25 -26 -25 -215 0
-189 0 -191 25 -215 l24 -25 976 0 975 0 0 -56 c0 -87 18 -133 75 -189 69 -69
94 -75 327 -75 234 0 266 8 331 80 49 55 67 103 67 184 l0 56 975 0 976 0 24
25 c25 24 25 26 25 215 0 189 0 191 -25 215 -22 23 -32 25 -120 25 l-95 0 0
1680 0 1680 95 0 c88 0 98 2 120 25 l25 24 0 271 0 271 -25 24 -24 25 -2351 0
-2351 0 -24 -25z m4615 -295 l0 -160 -2240 0 -2240 0 0 160 0 160 2240 0 2240
0 0 -160z m-240 -2000 l0 -1680 -2000 0 -2000 0 0 1680 0 1680 2000 0 2000 0
0 -1680z m240 -1920 l0 -80 -2240 0 -2240 0 0 80 0 80 2240 0 2240 0 0 -80z
m-2000 -295 c0 -46 -4 -60 -25 -80 -24 -25 -26 -25 -215 -25 -189 0 -191 0
-215 25 -21 20 -25 34 -25 80 l0 55 240 0 240 0 0 -55z"/>
<path d="M1600 4081 l0 -78 72 -8 c166 -16 308 -85 433 -210 91 -91 144 -175
182 -290 23 -71 26 -96 26 -215 0 -119 -3 -144 -26 -215 -38 -115 -91 -199
-182 -290 -91 -91 -175 -144 -290 -182 -71 -23 -96 -26 -215 -26 -119 0 -144
3 -215 26 -114 38 -198 90 -290 182 -125 125 -194 266 -210 433 l-8 72 -78 0
-79 0 0 -34 c0 -18 7 -73 15 -121 82 -471 542 -793 1013 -711 479 84 801 540
718 1015 -64 364 -351 653 -711 716 -48 8 -103 15 -121 15 l-34 0 0 -79z"/>
<path d="M3705 4055 l-25 -24 0 -296 0 -295 -80 0 -80 0 0 95 c0 88 -2 98 -25
120 -24 25 -26 25 -215 25 -259 0 -240 21 -240 -265 l0 -215 -135 0 c-131 0
-137 -1 -160 -25 -25 -24 -25 -24 -25 -240 l0 -215 -80 0 -80 0 0 -80 0 -80
880 0 880 0 0 80 0 80 -80 0 -80 0 0 655 0 656 -25 24 c-24 25 -26 25 -215 25
-189 0 -191 0 -215 -25z m295 -735 l0 -600 -80 0 -80 0 0 600 0 600 80 0 80 0
0 -600z m-640 -200 l0 -400 -80 0 -80 0 0 400 0 400 80 0 80 0 0 -400z m320
-120 l0 -280 -80 0 -80 0 0 280 0 280 80 0 80 0 0 -280z m-640 -120 l0 -160
-80 0 -80 0 0 160 0 160 80 0 80 0 0 -160z"/>
<path d="M1485 3828 c-90 -17 -204 -80 -279 -154 -171 -172 -213 -420 -107
-638 167 -345 629 -421 897 -149 217 221 216 567 -1 786 -132 134 -320 191
-510 155z m35 -368 c0 -211 0 -211 25 -235 15 -16 35 -25 56 -25 28 0 52 19
184 151 l152 150 29 -63 c25 -55 29 -75 29 -159 0 -90 -2 -99 -37 -171 -45
-91 -103 -147 -196 -191 -61 -29 -76 -32 -162 -32 -86 0 -101 3 -162 32 -93
44 -151 100 -196 191 -35 72 -37 81 -37 171 0 87 3 102 32 163 42 90 100 150
186 193 38 19 76 35 83 35 11 0 14 -39 14 -210z m243 182 l58 -27 -71 -70 -70
-69 0 97 c0 71 3 97 13 97 6 0 38 -12 70 -28z"/>
<path d="M4080 2227 c-49 -16 -133 -102 -148 -153 -14 -49 -15 -104 -3 -137 9
-23 0 -34 -131 -148 -78 -68 -146 -127 -153 -131 -6 -4 -31 0 -56 8 -52 19
-121 14 -169 -9 l-33 -17 -138 103 -138 102 6 48 c17 135 -99 267 -235 267
-65 0 -115 -22 -167 -75 -67 -67 -93 -156 -66 -228 9 -23 0 -34 -131 -148 -78
-68 -146 -127 -153 -131 -6 -4 -29 -1 -51 7 -81 29 -161 13 -228 -46 -24 -21
-49 -52 -56 -69 l-12 -30 -329 0 -329 0 0 -80 0 -80 329 0 329 0 12 -30 c28
-68 129 -130 212 -130 149 0 279 171 229 303 -9 23 0 34 131 148 78 68 146
127 153 131 6 4 31 0 56 -8 52 -19 121 -14 169 9 l33 17 138 -103 138 -102 -6
-48 c-9 -75 13 -134 71 -192 74 -74 152 -92 249 -59 109 37 186 187 148 287
-9 23 0 34 131 148 78 68 146 127 153 131 6 4 29 1 51 -7 89 -32 168 -12 239
60 98 97 101 222 8 325 -65 72 -158 97 -253 67z m135 -172 c50 -49 15 -135
-55 -135 -41 0 -80 39 -80 80 0 41 39 80 80 80 19 0 40 -9 55 -25z m-1280 -80
c50 -49 15 -135 -55 -135 -41 0 -80 39 -80 80 0 41 39 80 80 80 19 0 40 -9 55
-25z m640 -480 c50 -49 15 -135 -55 -135 -41 0 -80 39 -80 80 0 41 39 80 80
80 19 0 40 -9 55 -25z m-1280 -80 c50 -49 15 -135 -55 -135 -19 0 -40 9 -55
25 -16 15 -25 36 -25 55 0 19 9 40 25 55 15 16 36 25 55 25 19 0 40 -9 55 -25z"/>
<path d="M720 1360 l0 -80 80 0 80 0 0 80 0 80 -80 0 -80 0 0 -80z"/>
<path d="M1040 1360 l0 -80 80 0 80 0 0 80 0 80 -80 0 -80 0 0 -80z"/>
</g>
</svg>
